<?xml version="1.0" encoding="UTF-8"?>
<svg xmlns="http://www.w3.org/2000/svg" version="1.1" viewBox="0 0 512 512">
  <defs>
    <style>
      .cls-1 {
        fill: #284b63;
      }
    </style>
  </defs>
  <!-- Generator: Adobe Illustrator 28.7.0, SVG Export Plug-In . SVG Version: 1.2.0 Build 136)  -->
  <g>
    <g id="Layer_1">
      <path class="cls-1" d="M128.9,30.4c0-6.5,5.2-11.8,11.8-11.8h133.5c65.3,0,124.6,26.7,167.7,69.7s69.7,102.3,69.7,167.7-23.8,117.8-62.5,160c-39.1,42.7-93.5,71.2-154.2,76.4-6.5.5-12.2-4.3-12.7-10.7-.5-6.5,4.3-12.2,10.7-12.7,54.7-4.8,103.7-30.4,138.9-68.8,34.9-38.1,56.2-88.7,56.2-144.2s-24.1-112.2-62.8-150.9-92.2-62.8-150.9-62.8h-121.7v90.4c18.4-1.4,37.1-.3,54.1,5,21.2,6.6,39.2,19.8,50,42.7,10.8,4.5,23.1,8.2,36.7,11.2,15.5,3.4,33,5.9,52.4,7.4h0c5.2.4,9.7,4.3,10.7,9.6,4.9,27.5,5.8,51,2.6,70.6-3.4,20.9-11.5,37.4-24,49.7-15.6,15.3-38.8,20.2-62.3,25.3-31.9,6.9-64.8,13.8-66.7,52.5v86.9h-11.8c-6.5,0-11.8-5.2-11.8-11.8v-76.3c1.8-56.5,44.2-65.5,85.4-74.3,20.1-4.3,40-8.6,50.7-19.1,8.9-8.7,14.6-20.8,17.1-36.5,2.5-14.9,2.1-32.9-1-53.7-16.7-1.6-32.2-4-46.5-7.2-17-3.7-32.1-8.6-45.4-14.6-2.9-1.3-4.9-3.5-6.1-6.3h0c-7.5-18.3-21.1-28.5-37.3-33.6-14.3-4.5-30.8-5.2-47.1-3.9v151.2c0,1.2-.2,2.2-.5,3.3-5.5,21.2-13.4,34.8-22.6,42.4-8.4,7-17.7,9.2-27.1,7.6-8.5-1.4-16.7-5.8-24.2-12.5-15.1-13.3-28.4-36.5-34.7-60.9-1.4-5.5-8.4-10.3-15.4-15.1-18.8-13.1-38-26.4-20-63.2,7.8-16,23-31.7,43.1-44.5,18.6-11.9,41.5-21.5,67-27,3.5-.7,7.1-1.4,10.7-2V30.4h.3ZM128.9,305.8v-146.5c-1.9.3-3.9.7-5.8,1.2-22.7,4.8-42.9,13.4-59.2,23.8-16.5,10.5-28.7,22.8-34.6,35-9.1,18.6,1.7,26.1,12.3,33.5,10.6,7.4,21.1,14.7,24.7,28.6,5.2,20,15.7,38.8,27.4,49.1,4.3,3.7,8.6,6.2,12.3,6.9,2.8.4,5.7-.3,8.4-2.6,5.4-4.5,10.4-13.7,14.5-29.1h0Z"/>
    </g>
  </g>
</svg>