<?xml version="1.0" encoding="UTF-8"?>
<svg id="Layer_1" data-name="Layer 1" aria-label="DaniMelo logo" xmlns="http://www.w3.org/2000/svg" version="1.1" viewBox="0 0 512 512">
  <defs>
    <style>
      .cls-1 {
        fill: #284b63;
        stroke-width: 0px;
      }
    </style>
  </defs>
  <path class="cls-1" d="M137,45.3c0-6.1,4.9-11,11-11h124.7c61,0,116.4,24.9,156.6,65.1,40.2,40.2,65.1,95.6,65.1,156.6s-22.2,110-58.4,149.5c-36.5,39.9-87.3,66.5-144,71.4-6.1.5-11.4-4-11.9-10-.5-6.1,4-11.4,10-11.9,51.1-4.5,96.9-28.4,129.7-64.3,32.6-35.6,52.5-82.9,52.5-134.7s-22.5-104.8-58.7-141c-36.2-36.2-86.1-58.7-141-58.7h-113.7v84.4c17.2-1.3,34.7-.3,50.5,4.7,19.8,6.2,36.6,18.5,46.7,39.9,10.1,4.2,21.6,7.7,34.3,10.5,14.5,3.2,30.8,5.5,48.9,6.9h0c4.9.4,9.1,4,10,9,4.6,25.7,5.4,47.6,2.4,65.9-3.2,19.5-10.7,34.9-22.4,46.4-14.6,14.3-36.2,18.9-58.2,23.6-29.8,6.4-60.5,12.9-62.3,49v81.2h-11c-6.1,0-11-4.9-11-11v-64.9c0-1.8,0-3.6,0-5.3v-.4c0-.2,0-.5,0-.7,1.7-52.8,41.3-61.2,79.8-69.4,18.8-4,37.4-8,47.4-17.8,8.3-8.1,13.6-19.4,16-34.1,2.3-13.9,2-30.7-.9-50.2-15.6-1.5-30.1-3.7-43.4-6.7-15.9-3.5-30-8-42.4-13.6-2.7-1.2-4.6-3.3-5.7-5.9h0c-7-17.1-19.7-26.6-34.8-31.4-13.4-4.2-28.8-4.9-44-3.6v141.2c0,1.1-.2,2.1-.5,3.1-5.1,19.8-12.5,32.5-21.1,39.6-7.8,6.5-16.5,8.6-25.3,7.1-7.9-1.3-15.6-5.4-22.6-11.7-14.1-12.4-26.5-34.1-32.4-56.9-1.3-5.1-7.8-9.6-14.4-14.1-17.6-12.2-35.5-24.7-18.7-59,7.3-14.9,21.5-29.6,40.3-41.6,17.4-11.1,38.8-20.1,62.6-25.2,3.3-.7,6.6-1.3,10-1.9V45.3h0ZM137,302.6v-136.8c-1.8.3-3.6.7-5.4,1.1-21.2,4.5-40.1,12.5-55.3,22.2-15.4,9.8-26.8,21.3-32.3,32.7-8.5,17.4,1.6,24.4,11.5,31.3,9.9,6.9,19.7,13.7,23.1,26.7,4.9,18.7,14.7,36.2,25.6,45.9,4,3.5,8,5.8,11.5,6.4,2.6.4,5.3-.3,7.8-2.4,5-4.2,9.7-12.8,13.5-27.2h0Z"/>
</svg>